<?xml version="1.0" encoding="UTF-8"?>
<svg xmlns="http://www.w3.org/2000/svg" viewBox="0 0 400 360" role="img" aria-label="Ab Wheel Rollout">
  <rect width="400" height="360" fill="#f7f4ee"/>
  <text x="24" y="36" font-family="IBM Plex Sans, Helvetica, Arial, sans-serif" font-size="13" font-weight="600" fill="#8a8478" letter-spacing="0.06em">CORRECTIVE</text>
  <text x="24" y="58" font-family="Syne, Helvetica, Arial, sans-serif" font-size="18" font-weight="700" fill="#171512">Ab Wheel Rollout</text>
  <line x1="40" y1="320" x2="360" y2="320" stroke="#8a8478" stroke-width="2" opacity="0.5"/>
  <circle cx="195.3" cy="167.0" r="14" fill="none" stroke="#171512" stroke-width="3"/>
<line x1="187.8" y1="185.0" x2="180.0" y2="240.0" stroke="#171512" stroke-width="4" stroke-linecap="round"/>
<line x1="180.0" y1="240.0" x2="206.6" y2="265.7" stroke="#171512" stroke-width="3.5" stroke-linecap="round"/>
<line x1="206.6" y1="265.7" x2="235.8" y2="241.3" stroke="#171512" stroke-width="3.5" stroke-linecap="round"/>
<line x1="180.0" y1="240.0" x2="221.6" y2="253.7" stroke="#171512" stroke-width="3.5" stroke-linecap="round"/>
<line x1="221.6" y1="253.7" x2="240.6" y2="220.8" stroke="#171512" stroke-width="3.5" stroke-linecap="round"/>
<line x1="187.8" y1="185.0" x2="214.8" y2="174.1" stroke="#171512" stroke-width="3.5" stroke-linecap="round"/>
<line x1="214.8" y1="174.1" x2="239.1" y2="160.1" stroke="#171512" stroke-width="3.5" stroke-linecap="round"/>
<line x1="187.8" y1="185.0" x2="220.8" y2="174.1" stroke="#171512" stroke-width="3.5" stroke-linecap="round"/>
<line x1="220.8" y1="174.1" x2="245.1" y2="160.1" stroke="#171512" stroke-width="3.5" stroke-linecap="round"/><circle cx="259.07133929259714" cy="160.0553554135786" r="12" fill="none" stroke="#d64b14" stroke-width="4"/>
    <defs>
      <marker id="arr" markerWidth="8" markerHeight="8" refX="6" refY="3" orient="auto">
        <path d="M0,0 L6,3 L0,6 Z" fill="#d64b14"/>
      </marker>
    </defs>
    <line x1="240" y1="200" x2="290" y2="200" stroke="#d64b14" stroke-width="2.5" marker-end="url(#arr)" opacity="0.85"/>
  
</svg>
