<?xml version="1.0" encoding="UTF-8"?>
<svg xmlns="http://www.w3.org/2000/svg" viewBox="0 0 400 360" role="img" aria-label="Band Face Pull to External Rotation">
  <rect width="400" height="360" fill="#f7f4ee"/>
  <text x="24" y="36" font-family="IBM Plex Sans, Helvetica, Arial, sans-serif" font-size="13" font-weight="600" fill="#8a8478" letter-spacing="0.06em">ROTATE</text>
  <text x="24" y="58" font-family="Syne, Helvetica, Arial, sans-serif" font-size="18" font-weight="700" fill="#171512">Band Face Pull to External Rotation</text>
  <line x1="40" y1="320" x2="360" y2="320" stroke="#8a8478" stroke-width="2" opacity="0.5"/>
  <circle cx="220.0" cy="137.0" r="14" fill="none" stroke="#171512" stroke-width="3"/>
<line x1="220.0" y1="155.0" x2="220.0" y2="210.0" stroke="#171512" stroke-width="4" stroke-linecap="round"/>
<line x1="220.0" y1="210.0" x2="224.3" y2="249.1" stroke="#171512" stroke-width="3.5" stroke-linecap="round"/>
<line x1="224.3" y1="249.1" x2="238.6" y2="284.4" stroke="#171512" stroke-width="3.5" stroke-linecap="round"/>
<line x1="220.0" y1="210.0" x2="215.7" y2="249.1" stroke="#171512" stroke-width="3.5" stroke-linecap="round"/>
<line x1="215.7" y1="249.1" x2="214.4" y2="287.1" stroke="#171512" stroke-width="3.5" stroke-linecap="round"/>
<line x1="220.0" y1="155.0" x2="192.5" y2="175.6" stroke="#171512" stroke-width="3.5" stroke-linecap="round"/>
<line x1="192.5" y1="175.6" x2="168.2" y2="161.6" stroke="#171512" stroke-width="3.5" stroke-linecap="round"/>
<line x1="220.0" y1="155.0" x2="247.5" y2="175.6" stroke="#171512" stroke-width="3.5" stroke-linecap="round"/>
<line x1="247.5" y1="175.6" x2="271.8" y2="161.6" stroke="#171512" stroke-width="3.5" stroke-linecap="round"/><path d="M 100 140 Q 134.1189332571142 130.78460175498464 168.23786651422841 161.56920350996927" fill="none" stroke="#d64b14" stroke-width="3" stroke-dasharray="6 4"/><path d="M 100 140 Q 185.8810667428858 130.78460175498464 271.7621334857716 161.56920350996927" fill="none" stroke="#d64b14" stroke-width="3" stroke-dasharray="6 4"/>
</svg>
