<?xml version="1.0" encoding="UTF-8"?>
<svg xmlns="http://www.w3.org/2000/svg" viewBox="0 0 400 360" role="img" aria-label="Close-Grip Bench Press">
  <rect width="400" height="360" fill="#f7f4ee"/>
  <text x="24" y="36" font-family="IBM Plex Sans, Helvetica, Arial, sans-serif" font-size="13" font-weight="600" fill="#8a8478" letter-spacing="0.06em">PUSH HORIZONTAL</text>
  <text x="24" y="58" font-family="Syne, Helvetica, Arial, sans-serif" font-size="18" font-weight="700" fill="#171512">Close-Grip Bench Press</text>
  <line x1="40" y1="320" x2="360" y2="320" stroke="#8a8478" stroke-width="2" opacity="0.5"/>
  
    <rect x="145" y="220" width="110" height="14" rx="3" fill="#8a8478" opacity="0.35"/>
    <line x1="155" y1="234" x2="155" y2="256" stroke="#8a8478" stroke-width="3"/>
    <line x1="245" y1="234" x2="245" y2="256" stroke="#8a8478" stroke-width="3"/>
  <circle cx="200.0" cy="137.0" r="14" fill="none" stroke="#171512" stroke-width="3"/>
<line x1="200.0" y1="155.0" x2="200.0" y2="210.0" stroke="#171512" stroke-width="4" stroke-linecap="round"/>
<line x1="200.0" y1="210.0" x2="216.0" y2="244.6" stroke="#171512" stroke-width="3.5" stroke-linecap="round"/>
<line x1="216.0" y1="244.6" x2="250.4" y2="260.7" stroke="#171512" stroke-width="3.5" stroke-linecap="round"/>
<line x1="200.0" y1="210.0" x2="184.0" y2="244.6" stroke="#171512" stroke-width="3.5" stroke-linecap="round"/>
<line x1="184.0" y1="244.6" x2="187.3" y2="282.5" stroke="#171512" stroke-width="3.5" stroke-linecap="round"/>
<line x1="200.0" y1="155.0" x2="166.9" y2="165.9" stroke="#171512" stroke-width="3.5" stroke-linecap="round"/>
<line x1="166.9" y1="165.9" x2="138.9" y2="165.9" stroke="#171512" stroke-width="3.5" stroke-linecap="round"/>
<line x1="200.0" y1="155.0" x2="233.1" y2="165.9" stroke="#171512" stroke-width="3.5" stroke-linecap="round"/>
<line x1="233.1" y1="165.9" x2="261.1" y2="165.9" stroke="#171512" stroke-width="3.5" stroke-linecap="round"/>
    <line x1="155" y1="165.9446445864214" x2="245" y2="165.9446445864214" stroke="#d64b14" stroke-width="4" stroke-linecap="round"/>
    <rect x="147" y="155.9446445864214" width="10" height="20" rx="2" fill="#d64b14"/>
    <rect x="243" y="155.9446445864214" width="10" height="20" rx="2" fill="#d64b14"/>
  
</svg>
