<?xml version="1.0" encoding="UTF-8"?>
<svg xmlns="http://www.w3.org/2000/svg" viewBox="0 0 400 360" role="img" aria-label="Dumbbell Swing">
  <rect width="400" height="360" fill="#f7f4ee"/>
  <text x="24" y="36" font-family="IBM Plex Sans, Helvetica, Arial, sans-serif" font-size="13" font-weight="600" fill="#8a8478" letter-spacing="0.06em">HINGE</text>
  <text x="24" y="58" font-family="Syne, Helvetica, Arial, sans-serif" font-size="18" font-weight="700" fill="#171512">Dumbbell Swing</text>
  <line x1="40" y1="320" x2="360" y2="320" stroke="#8a8478" stroke-width="2" opacity="0.5"/>
  <circle cx="205.6" cy="137.0" r="14" fill="none" stroke="#171512" stroke-width="3"/>
<line x1="202.8" y1="155.0" x2="200.0" y2="210.0" stroke="#171512" stroke-width="4" stroke-linecap="round"/>
<line x1="200.0" y1="210.0" x2="206.4" y2="248.6" stroke="#171512" stroke-width="3.5" stroke-linecap="round"/>
<line x1="206.4" y1="248.6" x2="228.1" y2="279.8" stroke="#171512" stroke-width="3.5" stroke-linecap="round"/>
<line x1="200.0" y1="210.0" x2="193.6" y2="248.6" stroke="#171512" stroke-width="3.5" stroke-linecap="round"/>
<line x1="193.6" y1="248.6" x2="197.0" y2="286.5" stroke="#171512" stroke-width="3.5" stroke-linecap="round"/>
<line x1="202.8" y1="155.0" x2="179.3" y2="179.5" stroke="#171512" stroke-width="3.5" stroke-linecap="round"/>
<line x1="179.3" y1="179.5" x2="155.0" y2="193.5" stroke="#171512" stroke-width="3.5" stroke-linecap="round"/>
<line x1="202.8" y1="155.0" x2="226.4" y2="179.5" stroke="#171512" stroke-width="3.5" stroke-linecap="round"/>
<line x1="226.4" y1="179.5" x2="250.6" y2="193.5" stroke="#171512" stroke-width="3.5" stroke-linecap="round"/>
    <path d="M 194.82166618243676 185.5134221798073 Q 202.82166618243676 175.5134221798073 210.82166618243676 185.5134221798073" fill="none" stroke="#d64b14" stroke-width="3"/>
    <circle cx="202.82166618243676" cy="197.5134221798073" r="12" fill="#d64b14"/>
  
    <defs>
      <marker id="arr" markerWidth="8" markerHeight="8" refX="6" refY="3" orient="auto">
        <path d="M0,0 L6,3 L0,6 Z" fill="#d64b14"/>
      </marker>
    </defs>
    <line x1="250" y1="140" x2="280" y2="100" stroke="#d64b14" stroke-width="2.5" marker-end="url(#arr)" opacity="0.85"/>
  
</svg>
