<?xml version="1.0" encoding="UTF-8"?>
<svg xmlns="http://www.w3.org/2000/svg" viewBox="0 0 400 360" role="img" aria-label="Med-Ball Rotational Throw">
  <rect width="400" height="360" fill="#f7f4ee"/>
  <text x="24" y="36" font-family="IBM Plex Sans, Helvetica, Arial, sans-serif" font-size="13" font-weight="600" fill="#8a8478" letter-spacing="0.06em">ROTATE</text>
  <text x="24" y="58" font-family="Syne, Helvetica, Arial, sans-serif" font-size="18" font-weight="700" fill="#171512">Med-Ball Rotational Throw</text>
  <line x1="40" y1="320" x2="360" y2="320" stroke="#8a8478" stroke-width="2" opacity="0.5"/>
  <circle cx="173.1" cy="137.0" r="14" fill="none" stroke="#171512" stroke-width="3"/>
<line x1="176.5" y1="155.0" x2="180.0" y2="210.0" stroke="#171512" stroke-width="4" stroke-linecap="round"/>
<line x1="180.0" y1="210.0" x2="184.3" y2="249.1" stroke="#171512" stroke-width="3.5" stroke-linecap="round"/>
<line x1="184.3" y1="249.1" x2="198.6" y2="284.4" stroke="#171512" stroke-width="3.5" stroke-linecap="round"/>
<line x1="180.0" y1="210.0" x2="175.7" y2="249.1" stroke="#171512" stroke-width="3.5" stroke-linecap="round"/>
<line x1="175.7" y1="249.1" x2="174.4" y2="287.1" stroke="#171512" stroke-width="3.5" stroke-linecap="round"/>
<line x1="176.5" y1="155.0" x2="201.2" y2="139.0" stroke="#171512" stroke-width="3.5" stroke-linecap="round"/>
<line x1="201.2" y1="139.0" x2="219.2" y2="117.6" stroke="#171512" stroke-width="3.5" stroke-linecap="round"/>
<line x1="176.5" y1="155.0" x2="168.6" y2="185.1" stroke="#171512" stroke-width="3.5" stroke-linecap="round"/>
<line x1="168.6" y1="185.1" x2="144.3" y2="199.1" stroke="#171512" stroke-width="3.5" stroke-linecap="round"/><circle cx="260" cy="150" r="16" fill="#d64b14"/>
    <defs>
      <marker id="arr" markerWidth="8" markerHeight="8" refX="6" refY="3" orient="auto">
        <path d="M0,0 L6,3 L0,6 Z" fill="#d64b14"/>
      </marker>
    </defs>
    <line x1="230" y1="160" x2="280" y2="140" stroke="#d64b14" stroke-width="2.5" marker-end="url(#arr)" opacity="0.85"/>
  
</svg>
